<svg id="visual" viewBox="0 0 3200 1800" width="3200" height="1800" xmlns="http://www.w3.org/2000/svg" xmlns:xlink="http://www.w3.org/1999/xlink" version="1.1"><rect x="0" y="0" width="3200" height="1800" fill="#eeeaed"></rect><path d="M0 1440L35.5 1434C71 1428 142 1416 213.2 1386.2C284.3 1356.3 355.7 1308.7 426.8 1290.8C498 1273 569 1285 640 1311C711 1337 782 1377 853.2 1371.7C924.3 1366.3 995.7 1315.7 1066.8 1315.8C1138 1316 1209 1367 1280 1366.2C1351 1365.3 1422 1312.7 1493.2 1290.8C1564.3 1269 1635.7 1278 1706.8 1305.2C1778 1332.3 1849 1377.7 1920 1383C1991 1388.3 2062 1353.7 2133.2 1355.2C2204.3 1356.7 2275.7 1394.3 2346.8 1387.3C2418 1380.3 2489 1328.7 2560 1305.5C2631 1282.3 2702 1287.7 2773.2 1298.2C2844.3 1308.7 2915.7 1324.3 2986.8 1325C3058 1325.7 3129 1311.3 3164.5 1304.2L3200 1297L3200 1801L3164.5 1801C3129 1801 3058 1801 2986.8 1801C2915.7 1801 2844.3 1801 2773.2 1801C2702 1801 2631 1801 2560 1801C2489 1801 2418 1801 2346.8 1801C2275.7 1801 2204.3 1801 2133.2 1801C2062 1801 1991 1801 1920 1801C1849 1801 1778 1801 1706.8 1801C1635.7 1801 1564.3 1801 1493.2 1801C1422 1801 1351 1801 1280 1801C1209 1801 1138 1801 1066.8 1801C995.7 1801 924.3 1801 853.2 1801C782 1801 711 1801 640 1801C569 1801 498 1801 426.8 1801C355.7 1801 284.3 1801 213.2 1801C142 1801 71 1801 35.5 1801L0 1801Z" fill="#441116"></path><path d="M0 1345L35.5 1348.7C71 1352.3 142 1359.7 213.2 1370.7C284.3 1381.7 355.7 1396.3 426.8 1392.2C498 1388 569 1365 640 1376.8C711 1388.7 782 1435.3 853.2 1463.3C924.3 1491.3 995.7 1500.7 1066.8 1485.2C1138 1469.7 1209 1429.3 1280 1420.5C1351 1411.7 1422 1434.3 1493.2 1449.2C1564.3 1464 1635.7 1471 1706.8 1472.3C1778 1473.7 1849 1469.3 1920 1460.2C1991 1451 2062 1437 2133.2 1438C2204.3 1439 2275.7 1455 2346.8 1457C2418 1459 2489 1447 2560 1438C2631 1429 2702 1423 2773.2 1433.8C2844.3 1444.7 2915.7 1472.3 2986.8 1461.8C3058 1451.3 3129 1402.7 3164.5 1378.3L3200 1354L3200 1801L3164.5 1801C3129 1801 3058 1801 2986.8 1801C2915.7 1801 2844.3 1801 2773.2 1801C2702 1801 2631 1801 2560 1801C2489 1801 2418 1801 2346.8 1801C2275.7 1801 2204.3 1801 2133.2 1801C2062 1801 1991 1801 1920 1801C1849 1801 1778 1801 1706.8 1801C1635.7 1801 1564.3 1801 1493.2 1801C1422 1801 1351 1801 1280 1801C1209 1801 1138 1801 1066.8 1801C995.7 1801 924.3 1801 853.2 1801C782 1801 711 1801 640 1801C569 1801 498 1801 426.8 1801C355.7 1801 284.3 1801 213.2 1801C142 1801 71 1801 35.5 1801L0 1801Z" fill="#4a141b"></path><path d="M0 1495L35.5 1498.7C71 1502.3 142 1509.7 213.2 1509.5C284.3 1509.3 355.7 1501.7 426.8 1512.3C498 1523 569 1552 640 1559.3C711 1566.7 782 1552.3 853.2 1536.3C924.3 1520.3 995.7 1502.7 1066.8 1498.3C1138 1494 1209 1503 1280 1511.8C1351 1520.7 1422 1529.3 1493.2 1540.8C1564.3 1552.3 1635.7 1566.7 1706.8 1574.2C1778 1581.7 1849 1582.3 1920 1559.7C1991 1537 2062 1491 2133.2 1471.3C2204.3 1451.7 2275.7 1458.3 2346.8 1474.8C2418 1491.3 2489 1517.7 2560 1521.7C2631 1525.7 2702 1507.3 2773.2 1499.3C2844.3 1491.3 2915.7 1493.7 2986.8 1504.8C3058 1516 3129 1536 3164.5 1546L3200 1556L3200 1801L3164.5 1801C3129 1801 3058 1801 2986.8 1801C2915.7 1801 2844.3 1801 2773.2 1801C2702 1801 2631 1801 2560 1801C2489 1801 2418 1801 2346.8 1801C2275.7 1801 2204.3 1801 2133.2 1801C2062 1801 1991 1801 1920 1801C1849 1801 1778 1801 1706.8 1801C1635.7 1801 1564.3 1801 1493.2 1801C1422 1801 1351 1801 1280 1801C1209 1801 1138 1801 1066.8 1801C995.7 1801 924.3 1801 853.2 1801C782 1801 711 1801 640 1801C569 1801 498 1801 426.8 1801C355.7 1801 284.3 1801 213.2 1801C142 1801 71 1801 35.5 1801L0 1801Z" fill="#4f1820"></path><path d="M0 1636L35.5 1632.5C71 1629 142 1622 213.2 1614.2C284.3 1606.3 355.7 1597.7 426.8 1597.5C498 1597.3 569 1605.7 640 1601C711 1596.3 782 1578.7 853.2 1567.8C924.3 1557 995.7 1553 1066.8 1561.3C1138 1569.7 1209 1590.3 1280 1600.5C1351 1610.7 1422 1610.3 1493.2 1617.7C1564.3 1625 1635.7 1640 1706.8 1636.3C1778 1632.7 1849 1610.3 1920 1609.5C1991 1608.7 2062 1629.3 2133.2 1626.8C2204.3 1624.3 2275.7 1598.7 2346.8 1596.3C2418 1594 2489 1615 2560 1625.3C2631 1635.7 2702 1635.3 2773.2 1625.8C2844.3 1616.3 2915.7 1597.7 2986.8 1593.3C3058 1589 3129 1599 3164.5 1604L3200 1609L3200 1801L3164.5 1801C3129 1801 3058 1801 2986.8 1801C2915.7 1801 2844.3 1801 2773.2 1801C2702 1801 2631 1801 2560 1801C2489 1801 2418 1801 2346.8 1801C2275.7 1801 2204.3 1801 2133.2 1801C2062 1801 1991 1801 1920 1801C1849 1801 1778 1801 1706.8 1801C1635.7 1801 1564.3 1801 1493.2 1801C1422 1801 1351 1801 1280 1801C1209 1801 1138 1801 1066.8 1801C995.7 1801 924.3 1801 853.2 1801C782 1801 711 1801 640 1801C569 1801 498 1801 426.8 1801C355.7 1801 284.3 1801 213.2 1801C142 1801 71 1801 35.5 1801L0 1801Z" fill="#551c25"></path><path d="M0 1680L35.5 1684.3C71 1688.7 142 1697.3 213.2 1700.5C284.3 1703.7 355.7 1701.3 426.8 1697.2C498 1693 569 1687 640 1680.2C711 1673.3 782 1665.7 853.2 1672.5C924.3 1679.3 995.7 1700.7 1066.8 1697C1138 1693.3 1209 1664.7 1280 1654.3C1351 1644 1422 1652 1493.2 1658.5C1564.3 1665 1635.7 1670 1706.8 1672C1778 1674 1849 1673 1920 1681.5C1991 1690 2062 1708 2133.2 1708C2204.3 1708 2275.7 1690 2346.8 1683.3C2418 1676.7 2489 1681.3 2560 1683.8C2631 1686.3 2702 1686.7 2773.2 1686.7C2844.3 1686.7 2915.7 1686.3 2986.8 1683C3058 1679.7 3129 1673.3 3164.5 1670.2L3200 1667L3200 1801L3164.5 1801C3129 1801 3058 1801 2986.8 1801C2915.7 1801 2844.3 1801 2773.2 1801C2702 1801 2631 1801 2560 1801C2489 1801 2418 1801 2346.8 1801C2275.7 1801 2204.3 1801 2133.2 1801C2062 1801 1991 1801 1920 1801C1849 1801 1778 1801 1706.8 1801C1635.7 1801 1564.3 1801 1493.2 1801C1422 1801 1351 1801 1280 1801C1209 1801 1138 1801 1066.8 1801C995.7 1801 924.3 1801 853.2 1801C782 1801 711 1801 640 1801C569 1801 498 1801 426.8 1801C355.7 1801 284.3 1801 213.2 1801C142 1801 71 1801 35.5 1801L0 1801Z" fill="#5b202a"></path></svg>