<svg id="visual" viewBox="0 0 3200 1800" width="3200" height="1800" xmlns="http://www.w3.org/2000/svg" xmlns:xlink="http://www.w3.org/1999/xlink" version="1.1"><rect x="0" y="0" width="3200" height="1800" fill="#ececec"></rect><path d="M2490 1800L2166 1800L2166 1543L2223 1543L2223 1286L2313 1286L2313 1029L2481 1029L2481 771L2511 771L2511 514L2205 514L2205 257L2392 257L2392 0L3200 0L3200 257L3200 257L3200 514L3200 514L3200 771L3200 771L3200 1029L3200 1029L3200 1286L3200 1286L3200 1543L3200 1543L3200 1800L3200 1800Z" fill="#5b202a"></path><path d="M2556 1800L2730 1800L2730 1543L2574 1543L2574 1286L2480 1286L2480 1029L2718 1029L2718 771L2442 771L2442 514L2725 514L2725 257L2661 257L2661 0L3200 0L3200 257L3200 257L3200 514L3200 514L3200 771L3200 771L3200 1029L3200 1029L3200 1286L3200 1286L3200 1543L3200 1543L3200 1800L3200 1800Z" fill="#4f1820"></path><path d="M2770 1800L2759 1800L2759 1543L3040 1543L3040 1286L3024 1286L3024 1029L2877 1029L2877 771L2892 771L2892 514L3004 514L3004 257L2860 257L2860 0L3200 0L3200 257L3200 257L3200 514L3200 514L3200 771L3200 771L3200 1029L3200 1029L3200 1286L3200 1286L3200 1543L3200 1543L3200 1800L3200 1800Z" fill="#441116"></path></svg>