<svg id="visual" viewBox="0 0 3200 1800" width="3200" height="1800" xmlns="http://www.w3.org/2000/svg" xmlns:xlink="http://www.w3.org/1999/xlink" version="1.1"><rect x="0" y="0" width="3200" height="1800" fill="#eeeaed"></rect><defs><linearGradient id="grad1_0" x1="43.8%" y1="100%" x2="100%" y2="0%"><stop offset="14.444444444444446%" stop-color="#441116" stop-opacity="1"></stop><stop offset="85.55555555555554%" stop-color="#441116" stop-opacity="1"></stop></linearGradient></defs><defs><linearGradient id="grad1_1" x1="43.8%" y1="100%" x2="100%" y2="0%"><stop offset="14.444444444444446%" stop-color="#441116" stop-opacity="1"></stop><stop offset="85.55555555555554%" stop-color="#eeeaed" stop-opacity="1"></stop></linearGradient></defs><defs><linearGradient id="grad2_0" x1="0%" y1="100%" x2="56.3%" y2="0%"><stop offset="14.444444444444446%" stop-color="#441116" stop-opacity="1"></stop><stop offset="85.55555555555554%" stop-color="#441116" stop-opacity="1"></stop></linearGradient></defs><defs><linearGradient id="grad2_1" x1="0%" y1="100%" x2="56.3%" y2="0%"><stop offset="14.444444444444446%" stop-color="#eeeaed" stop-opacity="1"></stop><stop offset="85.55555555555554%" stop-color="#441116" stop-opacity="1"></stop></linearGradient></defs><g transform="translate(3200, 1800)"><path d="M-720 0C-714.1 -77.3 -708.2 -154.6 -680 -220.9C-651.8 -287.3 -601.3 -342.8 -558.2 -405.6C-515.2 -468.4 -479.7 -538.5 -423.2 -582.5C-366.8 -626.5 -289.4 -644.3 -215.4 -662.9C-141.4 -681.4 -70.7 -700.7 0 -720L0 0Z" fill="#987781"></path><path d="M-360 0C-357.1 -38.6 -354.1 -77.3 -340 -110.5C-325.9 -143.7 -300.6 -171.4 -279.1 -202.8C-257.6 -234.2 -239.8 -269.3 -211.6 -291.2C-183.4 -313.2 -144.7 -322.2 -107.7 -331.4C-70.7 -340.7 -35.3 -350.4 0 -360L0 0Z" fill="#441116"></path></g><g transform="translate(0, 0)"><path d="M720 0C705 72.3 690.1 144.7 670.5 217.9C650.9 291.1 626.8 365.1 582.5 423.2C538.2 481.3 473.8 523.3 411.4 566.3C349.1 609.3 288.9 653.3 220.6 679.1C152.4 704.8 76.2 712.4 0 720L0 0Z" fill="#987781"></path><path d="M360 0C352.5 36.2 345 72.3 335.2 108.9C325.5 145.5 313.4 182.6 291.2 211.6C269.1 240.6 236.9 261.7 205.7 283.2C174.6 304.7 144.4 326.6 110.3 339.5C76.2 352.4 38.1 356.2 0 360L0 0Z" fill="#441116"></path></g></svg>