<svg id="visual" viewBox="0 0 960 540" width="960" height="540" xmlns="http://www.w3.org/2000/svg" xmlns:xlink="http://www.w3.org/1999/xlink" version="1.1"><rect x="0" y="0" width="960" height="540" fill="#eeeaed"></rect><path d="M0 371L137 365L274 347L411 336L549 377L686 314L823 396L960 336L960 541L823 541L686 541L549 541L411 541L274 541L137 541L0 541Z" fill="#eeeaed"></path><path d="M0 368L137 363L274 369L411 406L549 413L686 369L823 383L960 386L960 541L823 541L686 541L549 541L411 541L274 541L137 541L0 541Z" fill="#c7b4be"></path><path d="M0 427L137 459L274 416L411 399L549 441L686 411L823 410L960 429L960 541L823 541L686 541L549 541L411 541L274 541L137 541L0 541Z" fill="#a3808d"></path><path d="M0 467L137 479L274 447L411 466L549 454L686 465L823 466L960 440L960 541L823 541L686 541L549 541L411 541L274 541L137 541L0 541Z" fill="#804f5b"></path><path d="M0 480L137 475L274 511L411 477L549 505L686 479L823 513L960 479L960 541L823 541L686 541L549 541L411 541L274 541L137 541L0 541Z" fill="#5b202a"></path></svg>