<svg id="visual" viewBox="0 0 2880 1620" width="2880" height="1620" xmlns="http://www.w3.org/2000/svg" xmlns:xlink="http://www.w3.org/1999/xlink" version="1.1"><rect x="0" y="0" width="2880" height="1620" fill="#ececec"></rect><path d="M0 1373L25.3 1368.8C50.7 1364.7 101.3 1356.3 151.8 1358.3C202.3 1360.3 252.7 1372.7 303.2 1370.7C353.7 1368.7 404.3 1352.3 454.8 1347C505.3 1341.7 555.7 1347.3 606.2 1355.7C656.7 1364 707.3 1375 757.8 1382.2C808.3 1389.3 858.7 1392.7 909.2 1391C959.7 1389.3 1010.3 1382.7 1061 1384.5C1111.7 1386.3 1162.3 1396.7 1212.8 1398.3C1263.3 1400 1313.7 1393 1364.2 1389.7C1414.7 1386.3 1465.3 1386.7 1515.8 1390.2C1566.3 1393.7 1616.7 1400.3 1667.2 1397.8C1717.7 1395.3 1768.3 1383.7 1819 1373.3C1869.7 1363 1920.3 1354 1970.8 1354.5C2021.3 1355 2071.7 1365 2122.2 1367.5C2172.7 1370 2223.3 1365 2273.8 1365.2C2324.3 1365.3 2374.7 1370.7 2425.2 1368.2C2475.7 1365.7 2526.3 1355.3 2576.8 1357.8C2627.3 1360.3 2677.7 1375.7 2728.2 1374.8C2778.7 1374 2829.3 1357 2854.7 1348.5L2880 1340L2880 1621L2854.7 1621C2829.3 1621 2778.7 1621 2728.2 1621C2677.7 1621 2627.3 1621 2576.8 1621C2526.3 1621 2475.7 1621 2425.2 1621C2374.7 1621 2324.3 1621 2273.8 1621C2223.3 1621 2172.7 1621 2122.2 1621C2071.7 1621 2021.3 1621 1970.8 1621C1920.3 1621 1869.7 1621 1819 1621C1768.3 1621 1717.7 1621 1667.2 1621C1616.7 1621 1566.3 1621 1515.8 1621C1465.3 1621 1414.7 1621 1364.2 1621C1313.7 1621 1263.3 1621 1212.8 1621C1162.3 1621 1111.7 1621 1061 1621C1010.3 1621 959.7 1621 909.2 1621C858.7 1621 808.3 1621 757.8 1621C707.3 1621 656.7 1621 606.2 1621C555.7 1621 505.3 1621 454.8 1621C404.3 1621 353.7 1621 303.2 1621C252.7 1621 202.3 1621 151.8 1621C101.3 1621 50.7 1621 25.3 1621L0 1621Z" fill="#441116"></path><path d="M0 1399L25.3 1407.5C50.7 1416 101.3 1433 151.8 1440.2C202.3 1447.3 252.7 1444.7 303.2 1436C353.7 1427.3 404.3 1412.7 454.8 1405.5C505.3 1398.3 555.7 1398.7 606.2 1407.5C656.7 1416.3 707.3 1433.7 757.8 1437.7C808.3 1441.7 858.7 1432.3 909.2 1426.3C959.7 1420.3 1010.3 1417.7 1061 1417.5C1111.7 1417.3 1162.3 1419.7 1212.8 1421.2C1263.3 1422.7 1313.7 1423.3 1364.2 1426.7C1414.7 1430 1465.3 1436 1515.8 1433.5C1566.3 1431 1616.7 1420 1667.2 1417.5C1717.7 1415 1768.3 1421 1819 1427.8C1869.7 1434.7 1920.3 1442.3 1970.8 1441.3C2021.3 1440.3 2071.7 1430.7 2122.2 1422.5C2172.7 1414.3 2223.3 1407.7 2273.8 1405C2324.3 1402.3 2374.7 1403.7 2425.2 1403.2C2475.7 1402.7 2526.3 1400.3 2576.8 1404.7C2627.3 1409 2677.7 1420 2728.2 1428.3C2778.7 1436.7 2829.3 1442.3 2854.7 1445.2L2880 1448L2880 1621L2854.7 1621C2829.3 1621 2778.7 1621 2728.2 1621C2677.7 1621 2627.3 1621 2576.8 1621C2526.3 1621 2475.7 1621 2425.2 1621C2374.7 1621 2324.3 1621 2273.8 1621C2223.3 1621 2172.7 1621 2122.2 1621C2071.7 1621 2021.3 1621 1970.8 1621C1920.3 1621 1869.7 1621 1819 1621C1768.3 1621 1717.7 1621 1667.2 1621C1616.7 1621 1566.3 1621 1515.8 1621C1465.3 1621 1414.7 1621 1364.2 1621C1313.7 1621 1263.3 1621 1212.8 1621C1162.3 1621 1111.7 1621 1061 1621C1010.3 1621 959.7 1621 909.2 1621C858.7 1621 808.3 1621 757.8 1621C707.3 1621 656.7 1621 606.2 1621C555.7 1621 505.3 1621 454.8 1621C404.3 1621 353.7 1621 303.2 1621C252.7 1621 202.3 1621 151.8 1621C101.3 1621 50.7 1621 25.3 1621L0 1621Z" fill="#6e4344"></path><path d="M0 1441L25.3 1444.5C50.7 1448 101.3 1455 151.8 1464.8C202.3 1474.7 252.7 1487.3 303.2 1484.5C353.7 1481.7 404.3 1463.3 454.8 1458.5C505.3 1453.7 555.7 1462.3 606.2 1467.2C656.7 1472 707.3 1473 757.8 1473.8C808.3 1474.7 858.7 1475.3 909.2 1472.7C959.7 1470 1010.3 1464 1061 1463.8C1111.7 1463.7 1162.3 1469.3 1212.8 1467.3C1263.3 1465.3 1313.7 1455.7 1364.2 1456.5C1414.7 1457.3 1465.3 1468.7 1515.8 1472.7C1566.3 1476.7 1616.7 1473.3 1667.2 1469.7C1717.7 1466 1768.3 1462 1819 1460.8C1869.7 1459.7 1920.3 1461.3 1970.8 1461C2021.3 1460.7 2071.7 1458.3 2122.2 1453.8C2172.7 1449.3 2223.3 1442.7 2273.8 1446.8C2324.3 1451 2374.7 1466 2425.2 1469.3C2475.7 1472.7 2526.3 1464.3 2576.8 1458C2627.3 1451.7 2677.7 1447.3 2728.2 1450C2778.7 1452.7 2829.3 1462.3 2854.7 1467.2L2880 1472L2880 1621L2854.7 1621C2829.3 1621 2778.7 1621 2728.2 1621C2677.7 1621 2627.3 1621 2576.8 1621C2526.3 1621 2475.7 1621 2425.2 1621C2374.7 1621 2324.3 1621 2273.8 1621C2223.3 1621 2172.7 1621 2122.2 1621C2071.7 1621 2021.3 1621 1970.8 1621C1920.3 1621 1869.7 1621 1819 1621C1768.3 1621 1717.7 1621 1667.2 1621C1616.7 1621 1566.3 1621 1515.8 1621C1465.3 1621 1414.7 1621 1364.2 1621C1313.7 1621 1263.3 1621 1212.8 1621C1162.3 1621 1111.7 1621 1061 1621C1010.3 1621 959.7 1621 909.2 1621C858.7 1621 808.3 1621 757.8 1621C707.3 1621 656.7 1621 606.2 1621C555.7 1621 505.3 1621 454.8 1621C404.3 1621 353.7 1621 303.2 1621C252.7 1621 202.3 1621 151.8 1621C101.3 1621 50.7 1621 25.3 1621L0 1621Z" fill="#987878"></path><path d="M0 1546L25.3 1537.8C50.7 1529.7 101.3 1513.3 151.8 1510C202.3 1506.7 252.7 1516.3 303.2 1524C353.7 1531.7 404.3 1537.3 454.8 1538.7C505.3 1540 555.7 1537 606.2 1530C656.7 1523 707.3 1512 757.8 1508.3C808.3 1504.7 858.7 1508.3 909.2 1511.2C959.7 1514 1010.3 1516 1061 1512.2C1111.7 1508.3 1162.3 1498.7 1212.8 1501.2C1263.3 1503.7 1313.7 1518.3 1364.2 1519C1414.7 1519.7 1465.3 1506.3 1515.8 1506.5C1566.3 1506.7 1616.7 1520.3 1667.2 1520.8C1717.7 1521.3 1768.3 1508.7 1819 1509C1869.7 1509.3 1920.3 1522.7 1970.8 1522.5C2021.3 1522.3 2071.7 1508.7 2122.2 1507.7C2172.7 1506.7 2223.3 1518.3 2273.8 1526.2C2324.3 1534 2374.7 1538 2425.2 1535.8C2475.7 1533.7 2526.3 1525.3 2576.8 1516.8C2627.3 1508.3 2677.7 1499.7 2728.2 1500.5C2778.7 1501.3 2829.3 1511.7 2854.7 1516.8L2880 1522L2880 1621L2854.7 1621C2829.3 1621 2778.7 1621 2728.2 1621C2677.7 1621 2627.3 1621 2576.8 1621C2526.3 1621 2475.7 1621 2425.2 1621C2374.7 1621 2324.3 1621 2273.8 1621C2223.3 1621 2172.7 1621 2122.2 1621C2071.7 1621 2021.3 1621 1970.8 1621C1920.3 1621 1869.7 1621 1819 1621C1768.3 1621 1717.7 1621 1667.2 1621C1616.7 1621 1566.3 1621 1515.8 1621C1465.3 1621 1414.7 1621 1364.2 1621C1313.7 1621 1263.3 1621 1212.8 1621C1162.3 1621 1111.7 1621 1061 1621C1010.3 1621 959.7 1621 909.2 1621C858.7 1621 808.3 1621 757.8 1621C707.3 1621 656.7 1621 606.2 1621C555.7 1621 505.3 1621 454.8 1621C404.3 1621 353.7 1621 303.2 1621C252.7 1621 202.3 1621 151.8 1621C101.3 1621 50.7 1621 25.3 1621L0 1621Z" fill="#c2b0b0"></path><path d="M0 1560L25.3 1559C50.7 1558 101.3 1556 151.8 1555.5C202.3 1555 252.7 1556 303.2 1561.5C353.7 1567 404.3 1577 454.8 1575.5C505.3 1574 555.7 1561 606.2 1557.8C656.7 1554.7 707.3 1561.3 757.8 1563.8C808.3 1566.3 858.7 1564.7 909.2 1561.7C959.7 1558.7 1010.3 1554.3 1061 1551.2C1111.7 1548 1162.3 1546 1212.8 1547.8C1263.3 1549.7 1313.7 1555.3 1364.2 1562.8C1414.7 1570.3 1465.3 1579.7 1515.8 1578C1566.3 1576.3 1616.7 1563.7 1667.2 1555.3C1717.7 1547 1768.3 1543 1819 1546.3C1869.7 1549.7 1920.3 1560.3 1970.8 1566.2C2021.3 1572 2071.7 1573 2122.2 1574C2172.7 1575 2223.3 1576 2273.8 1574.2C2324.3 1572.3 2374.7 1567.7 2425.2 1570.2C2475.7 1572.7 2526.3 1582.3 2576.8 1583.8C2627.3 1585.3 2677.7 1578.7 2728.2 1576.5C2778.7 1574.3 2829.3 1576.7 2854.7 1577.8L2880 1579L2880 1621L2854.7 1621C2829.3 1621 2778.7 1621 2728.2 1621C2677.7 1621 2627.3 1621 2576.8 1621C2526.3 1621 2475.7 1621 2425.2 1621C2374.7 1621 2324.3 1621 2273.8 1621C2223.3 1621 2172.7 1621 2122.2 1621C2071.7 1621 2021.3 1621 1970.8 1621C1920.3 1621 1869.7 1621 1819 1621C1768.3 1621 1717.7 1621 1667.2 1621C1616.7 1621 1566.3 1621 1515.8 1621C1465.3 1621 1414.7 1621 1364.2 1621C1313.7 1621 1263.3 1621 1212.8 1621C1162.3 1621 1111.7 1621 1061 1621C1010.3 1621 959.7 1621 909.2 1621C858.7 1621 808.3 1621 757.8 1621C707.3 1621 656.7 1621 606.2 1621C555.7 1621 505.3 1621 454.8 1621C404.3 1621 353.7 1621 303.2 1621C252.7 1621 202.3 1621 151.8 1621C101.3 1621 50.7 1621 25.3 1621L0 1621Z" fill="#ececec"></path></svg>