<svg id="visual" viewBox="0 0 3200 1800" width="3200" height="1800" xmlns="http://www.w3.org/2000/svg" xmlns:xlink="http://www.w3.org/1999/xlink" version="1.1"><rect x="0" y="0" width="3200" height="1800" fill="#ececec"></rect><path d="M2708 1800L2672 1800L2672 1700L2910 1700L2910 1600L2885 1600L2885 1500L2678 1500L2678 1400L2868 1400L2868 1300L2794 1300L2794 1200L2903 1200L2903 1100L2947 1100L2947 1000L2848 1000L2848 900L2735 900L2735 800L2882 800L2882 700L2951 700L2951 600L2682 600L2682 500L2819 500L2819 400L2750 400L2750 300L2818 300L2818 200L2964 200L2964 100L2696 100L2696 0L3200 0L3200 100L3200 100L3200 200L3200 200L3200 300L3200 300L3200 400L3200 400L3200 500L3200 500L3200 600L3200 600L3200 700L3200 700L3200 800L3200 800L3200 900L3200 900L3200 1000L3200 1000L3200 1100L3200 1100L3200 1200L3200 1200L3200 1300L3200 1300L3200 1400L3200 1400L3200 1500L3200 1500L3200 1600L3200 1600L3200 1700L3200 1700L3200 1800L3200 1800Z" fill="#5b202a"></path><path d="M2990 1800L2962 1800L2962 1700L2838 1700L2838 1600L2950 1600L2950 1500L2960 1500L2960 1400L2845 1400L2845 1300L2940 1300L2940 1200L2851 1200L2851 1100L3022 1100L3022 1000L3011 1000L3011 900L3009 900L3009 800L2900 800L2900 700L2997 700L2997 600L3040 600L3040 500L2843 500L2843 400L3034 400L3034 300L2947 300L2947 200L2971 200L2971 100L3007 100L3007 0L3200 0L3200 100L3200 100L3200 200L3200 200L3200 300L3200 300L3200 400L3200 400L3200 500L3200 500L3200 600L3200 600L3200 700L3200 700L3200 800L3200 800L3200 900L3200 900L3200 1000L3200 1000L3200 1100L3200 1100L3200 1200L3200 1200L3200 1300L3200 1300L3200 1400L3200 1400L3200 1500L3200 1500L3200 1600L3200 1600L3200 1700L3200 1700L3200 1800L3200 1800Z" fill="#4f1820"></path><path d="M3003 1800L3002 1800L3002 1700L3072 1700L3072 1600L3109 1600L3109 1500L3021 1500L3021 1400L3095 1400L3095 1300L2996 1300L2996 1200L3059 1200L3059 1100L3116 1100L3116 1000L3071 1000L3071 900L3021 900L3021 800L2975 800L2975 700L3100 700L3100 600L3106 600L3106 500L3069 500L3069 400L3091 400L3091 300L2979 300L2979 200L3084 200L3084 100L3116 100L3116 0L3200 0L3200 100L3200 100L3200 200L3200 200L3200 300L3200 300L3200 400L3200 400L3200 500L3200 500L3200 600L3200 600L3200 700L3200 700L3200 800L3200 800L3200 900L3200 900L3200 1000L3200 1000L3200 1100L3200 1100L3200 1200L3200 1200L3200 1300L3200 1300L3200 1400L3200 1400L3200 1500L3200 1500L3200 1600L3200 1600L3200 1700L3200 1700L3200 1800L3200 1800Z" fill="#441116"></path></svg>