<svg id="visual" viewBox="0 0 3200 1800" width="3200" height="1800" xmlns="http://www.w3.org/2000/svg" xmlns:xlink="http://www.w3.org/1999/xlink" version="1.1"><rect x="0" y="0" width="3200" height="1800" fill="#655f62"></rect><path d="M0 1297L48.5 1290.7C97 1284.3 194 1271.7 291 1288C388 1304.3 485 1349.7 582 1395.8C679 1442 776 1489 873 1478.5C970 1468 1067 1400 1164 1381C1261 1362 1358 1392 1454.8 1373.7C1551.7 1355.3 1648.3 1288.7 1745.2 1308.7C1842 1328.7 1939 1435.3 2036 1455.5C2133 1475.7 2230 1409.3 2327 1387.2C2424 1365 2521 1387 2618 1393.8C2715 1400.7 2812 1392.3 2909 1365.8C3006 1339.3 3103 1294.7 3151.5 1272.3L3200 1250L3200 1801L3151.5 1801C3103 1801 3006 1801 2909 1801C2812 1801 2715 1801 2618 1801C2521 1801 2424 1801 2327 1801C2230 1801 2133 1801 2036 1801C1939 1801 1842 1801 1745.2 1801C1648.3 1801 1551.7 1801 1454.8 1801C1358 1801 1261 1801 1164 1801C1067 1801 970 1801 873 1801C776 1801 679 1801 582 1801C485 1801 388 1801 291 1801C194 1801 97 1801 48.5 1801L0 1801Z" fill="#441116"></path><path d="M0 1602L48.5 1585.2C97 1568.3 194 1534.7 291 1536.7C388 1538.7 485 1576.3 582 1570.5C679 1564.7 776 1515.3 873 1511.3C970 1507.3 1067 1548.7 1164 1575.7C1261 1602.7 1358 1615.3 1454.8 1598.3C1551.7 1581.3 1648.3 1534.7 1745.2 1515.8C1842 1497 1939 1506 2036 1502.5C2133 1499 2230 1483 2327 1475.7C2424 1468.3 2521 1469.7 2618 1464.2C2715 1458.7 2812 1446.3 2909 1453.5C3006 1460.7 3103 1487.3 3151.5 1500.7L3200 1514L3200 1801L3151.5 1801C3103 1801 3006 1801 2909 1801C2812 1801 2715 1801 2618 1801C2521 1801 2424 1801 2327 1801C2230 1801 2133 1801 2036 1801C1939 1801 1842 1801 1745.2 1801C1648.3 1801 1551.7 1801 1454.8 1801C1358 1801 1261 1801 1164 1801C1067 1801 970 1801 873 1801C776 1801 679 1801 582 1801C485 1801 388 1801 291 1801C194 1801 97 1801 48.5 1801L0 1801Z" fill="#4f1820"></path><path d="M0 1615L48.5 1633.2C97 1651.3 194 1687.7 291 1676.7C388 1665.7 485 1607.3 582 1607.2C679 1607 776 1665 873 1662C970 1659 1067 1595 1164 1565.8C1261 1536.7 1358 1542.3 1454.8 1539.5C1551.7 1536.7 1648.3 1525.3 1745.2 1551.7C1842 1578 1939 1642 2036 1653.8C2133 1665.7 2230 1625.3 2327 1624.7C2424 1624 2521 1663 2618 1671.2C2715 1679.3 2812 1656.7 2909 1657.5C3006 1658.3 3103 1682.7 3151.5 1694.8L3200 1707L3200 1801L3151.5 1801C3103 1801 3006 1801 2909 1801C2812 1801 2715 1801 2618 1801C2521 1801 2424 1801 2327 1801C2230 1801 2133 1801 2036 1801C1939 1801 1842 1801 1745.2 1801C1648.3 1801 1551.7 1801 1454.8 1801C1358 1801 1261 1801 1164 1801C1067 1801 970 1801 873 1801C776 1801 679 1801 582 1801C485 1801 388 1801 291 1801C194 1801 97 1801 48.5 1801L0 1801Z" fill="#5b202a"></path></svg>